{"title":"Ben 10 Omniverse The More Things Change EPISODE-2","uid":8611094,"size":270013650,"categoryP":"video","categoryS":"tv_shows","magnet":"?xt=urn:btih:8caa7d1501a553084edc82d0189ee68a6abd8afc&amp;dn=Ben+10+Omniverse+The+More+Things+Change+EPISODE-2&amp;tr=udp%3A%2F%2Ftracker.openbittorrent.com%3A80&amp;tr=udp%3A%2F%2Fopen.demonii.com%3A1337&amp;tr=udp%3A%2F%2Ftracker.coppersurfer.tk%3A6969&amp;tr=udp%3A%2F%2Fexodus.desync.com%3A6969","seeders":1,"leechers":0,"uploader":"mettleedge","files":1,"time":1372136821,"description":"[size=200]INFO[/size][color=red][/color]\n\nAfter stopping Bubble Helmet, Fistina, and Liam from blowing up Mr. Baumann's superstore, Ben and Rook discover an underground alien city named Undertown where they discover that Psyphon is behind the protection racket. At the same time, Khyber sends his pet in the form of Buglizard to hunt Ben.\n\nOmnitrix Alien Debuts: NRG (Omniverse Debut), Water Hazard (Omniverse Debut), Terraspin (Omniverse Deb[color=red][/color]ut), Armodrillo (Omnivrse Debut), Shocksquatch (Omniverse Debut)\n\nNemetrix Alien Debut: Buglizard (predator to Stinkfly)\nParts 1 and 2 aired sequentially for the series premiere on September 22nd \n\n[color=red]General[/color] [size=200][/size]\n\nFormat : Matroska \nFormat version : Version 2 \nFile size : 257 MiB \nDuration : 22mn 2s \nOverall bit rate : 1 632 Kbps \n[color=red]\n[size=200]Video[/size][/color] \nID : 1 \nFormat : MPEG-4 Visual \nFormat profile : Simple@L1 \nFormat settings, BVOP : No \nFormat settings, QPel : No \nFormat settings, GMC : No warppoints \nFormat settings, Matrix : Default (H.263) \nCodec ID : V_MPEG4/ISO/ASP \nCodec ID/Info : Advanced Simple Profile \nDuration : 22mn 2s \nBit rate : 1 472 Kbps \nWidth : 640 pixels \nHeight : 480 pixels \nDisplay aspect ratio : 4:3 \nFrame rate mode : Constant \nFrame rate : 30.000 fps \nColor space : YUV \nChroma subsampling : 4:2:0 \nBit depth : 8 bits [color=red][size=200][/size][/color]\nScan type : Progressive \nCompression mode : Lossy \nBits/(Pixel*Frame) : 0.160 \nStream size : 232 MiB (90%) \nDefault : Yes \nForced : No \n\n[size=200][color=red]Audio[/color][/size] \nID : 2 \nFormat : MPEG Audio \nFormat version : Version 1 \nFormat profile : Layer 3 \nMode : Joint stereo \nCodec ID : A_MPEG/L3 \nCodec ID/Hint : MP3 \nDuration : 22mn 2s \nBit rate mode : Constant \nBit rate : 128 Kbps \nChannel(s) : 2 channels \nSampling rate : 44.1 KHz \nCompression mode : Lossy \nDelay relative to video : -33ms \nStream size : 20.2 MiB (8%) \nWriting library : LAME3.98.2 \nDefault : Yes http://kickass.to/upload/anime/\nForced : No \n\n\n[size=200][color=red]Screens[/color][/size]\n\n[img]http://go.sky.com/SVOD/SKYKIDS/IMAGES/CARTOON%20NETWORK%20UK/B/Ben%2010%20Omniverse/L-The-More-Things-Change-Ben-10-Omniverse-pt1-eps01.jpg[/img]\n\n\n\n[img]http://i3.ytimg.com/vi/Rdr1A_CRq4A/mqdefault.jpg[/img]\n\n\n\n\n","torrent":{"xt":"urn:btih:8caa7d1501a553084edc82d0189ee68a6abd8afc","amp;dn":"Ben+10+Omniverse+The+More+Things+Change+EPISODE-2","amp;tr":["udp%3A%2F%2Ftracker.openbittorrent.com%3A80","udp%3A%2F%2Fopen.demonii.com%3A1337","udp%3A%2F%2Ftracker.coppersurfer.tk%3A6969","udp%3A%2F%2Fexodus.desync.com%3A6969"],"infoHash":"8caa7d1501a553084edc82d0189ee68a6abd8afc","infoHashBuffer":{"type":"Buffer","data":[140,170,125,21,1,165,83,8,78,220,130,208,24,158,230,138,106,189,138,252]},"announce":[],"urlList":[]}}